<svg width="42" height="46" viewBox="0 0 42 46" fill="none" xmlns="http://www.w3.org/2000/svg">
<path d="M10.9586 22.3075C12.5273 22.3075 13.799 20.9476 13.799 19.2702C13.799 17.5927 12.5273 16.2328 10.9586 16.2328C9.38987 16.2328 8.11816 17.5927 8.11816 19.2702C8.11816 20.9476 9.38987 22.3075 10.9586 22.3075Z" stroke="#FF6600" stroke-width="0.640525" stroke-miterlimit="2.61313"/>
<path d="M23.3375 11.2047H7.98002C5.39676 11.2047 3.79998 13.5238 3.27796 16.2328L0.771467 29.2196C0.249441 31.9286 2.88644 34.2477 5.47353 34.2477H25.8479C28.435 34.2477 31.072 31.9245 30.5499 29.2196L29.4176 23.3542" stroke="#FF6600" stroke-width="0.640525" stroke-miterlimit="2.61313" stroke-linecap="round"/>
<path d="M10.9586 22.3075C12.5273 22.3075 13.799 20.9476 13.799 19.2702C13.799 17.5927 12.5273 16.2328 10.9586 16.2328C9.38987 16.2328 8.11816 17.5927 8.11816 19.2702C8.11816 20.9476 9.38987 22.3075 10.9586 22.3075Z" stroke="#FF6600" stroke-width="0.640525" stroke-miterlimit="2.61313"/>
<path d="M20.3628 22.3075C21.9315 22.3075 23.2032 20.9476 23.2032 19.2702C23.2032 17.5927 21.9315 16.2328 20.3628 16.2328C18.794 16.2328 17.5223 17.5927 17.5223 19.2702C17.5223 20.9476 18.794 22.3075 20.3628 22.3075Z" stroke="#FF6600" stroke-width="0.640525" stroke-miterlimit="2.61313"/>
<path d="M9.58447 28.9077H21.7331" stroke="#FF6600" stroke-width="0.640525" stroke-miterlimit="2.61313" stroke-linecap="round"/>
<path d="M20.3858 34.2518H10.9356C10.3505 34.2518 9.87622 34.9207 9.87622 35.7458C9.87622 36.571 10.3505 37.2399 10.9356 37.2399H20.3858C20.9709 37.2399 21.4452 36.571 21.4452 35.7458C21.4452 34.9207 20.9709 34.2518 20.3858 34.2518Z" stroke="#FF6600" stroke-width="0.640525" stroke-miterlimit="2.61313"/>
<path d="M18.9426 37.2358H12.375C11.968 37.2358 11.6381 37.9047 11.6381 38.7298C11.6381 39.555 11.968 40.2239 12.375 40.2239H18.9426C19.3496 40.2239 19.6796 39.555 19.6796 38.7298C19.6796 37.9047 19.3496 37.2358 18.9426 37.2358Z" stroke="#FF6600" stroke-width="0.640525" stroke-miterlimit="2.61313"/>
<path d="M15.6606 7.88416V11.1309" stroke="#FF6600" stroke-width="0.640525" stroke-miterlimit="2.61313"/>
<path d="M15.6607 7.82681C16.1864 7.82681 16.6126 7.37107 16.6126 6.80888C16.6126 6.2467 16.1864 5.79095 15.6607 5.79095C15.1349 5.79095 14.7087 6.2467 14.7087 6.80888C14.7087 7.37107 15.1349 7.82681 15.6607 7.82681Z" stroke="#FF6600" stroke-width="0.640525" stroke-miterlimit="2.61313"/>
<path fill-rule="evenodd" clip-rule="evenodd" d="M27.8016 7.67479C26.7115 7.67479 25.9746 8.38077 25.9746 9.489C25.9746 10.6588 26.8881 10.9338 26.8881 11.4428C26.8881 12.5592 25.9822 12.0297 25.2146 12.3786C23.898 12.9738 23.7905 15.0425 25.0994 15.7279C25.8018 16.0973 26.8881 15.6458 26.8881 16.6802C26.8881 17.0701 26.5465 17.2425 26.3622 17.5134C25.0303 19.5 27.3602 21.6877 29.0914 19.8037C29.7247 19.1101 30.2007 19.7791 30.2582 19.9884C30.4694 20.7724 30.1047 20.9284 30.6344 21.6795C31.4481 22.8329 33.2061 22.5784 33.6245 21.0228C33.7589 20.5179 33.4288 19.6806 34.2464 19.5246C34.5841 19.459 34.6763 19.5862 34.9027 19.8407C36.5916 21.7288 39.2171 19.2866 37.3171 17.2589C36.9256 16.8403 36.9064 16.1712 37.5167 15.966C38.2038 15.7361 38.5185 16.0891 39.1442 15.5432C40.2688 14.5663 39.8505 12.6864 38.4993 12.2924C38.0157 12.1487 37.2135 12.4155 37.0407 11.6849C36.868 10.9543 37.985 10.6957 37.985 9.489C37.985 8.15913 36.5609 7.05911 35.206 8.05241C34.8106 8.33973 34.8874 8.65167 34.2655 8.65167C33.4595 8.65167 33.8049 7.51471 33.5286 6.85798C32.8492 5.24079 30.6574 5.52811 30.3197 7.22329C30.2199 7.71583 30.5116 8.4998 29.7247 8.68451C29.1144 8.83227 28.815 7.67479 27.8055 7.67479H27.8016Z" stroke="#FF6600" stroke-width="0.640525" stroke-miterlimit="2.61313"/>
<path fill-rule="evenodd" clip-rule="evenodd" d="M29.6019 13.8809C29.6019 14.6689 29.6671 15.3667 30.3005 15.9947C31.4904 17.1686 33.4825 16.791 34.1235 15.1615C35.0102 12.9163 32.8069 11.0036 31.1449 11.767C30.3158 12.1446 29.598 12.9696 29.598 13.885L29.6019 13.8809Z" stroke="#FF6600" stroke-width="0.640525" stroke-miterlimit="2.61313"/>
<path fill-rule="evenodd" clip-rule="evenodd" d="M34.991 23.9822C34.419 23.9822 34.0314 24.3557 34.0314 24.9344C34.0314 25.5501 34.5112 25.6938 34.5112 25.9606C34.5112 26.5475 34.0352 26.2684 33.6322 26.4531C32.9412 26.765 32.8837 27.8528 33.5707 28.214C33.9392 28.4069 34.5112 28.1688 34.5112 28.7147C34.5112 28.9199 34.3308 29.0102 34.2348 29.1539C33.5362 30.2006 34.7607 31.3498 35.6704 30.3565C36.0043 29.9912 36.2538 30.3442 36.2845 30.455C36.3958 30.8655 36.2039 30.9476 36.4841 31.3457C36.9102 31.9491 37.8352 31.8178 38.0579 31.0009C38.1308 30.7383 37.9542 30.295 38.3841 30.2129C38.5607 30.18 38.6106 30.2457 38.7296 30.3771C39.6163 31.3704 40.9981 30.0856 40.0001 29.0184C39.7928 28.7968 39.7851 28.4438 40.1037 28.3412C40.4645 28.2222 40.6296 28.4069 40.9597 28.1196C41.5508 27.6065 41.3282 26.6173 40.6181 26.408C40.3647 26.3341 39.9425 26.4736 39.8542 26.0878C39.7621 25.702 40.3494 25.5665 40.3494 24.9344C40.3494 24.2366 39.6009 23.6579 38.887 24.1792C38.6797 24.3311 38.7181 24.4952 38.3918 24.4952C37.9696 24.4952 38.15 23.896 38.0041 23.5512C37.6471 22.7015 36.4956 22.8534 36.3152 23.7441C36.2653 24.0027 36.415 24.4131 36.0005 24.5117C35.678 24.5896 35.5207 23.9822 34.991 23.9822Z" stroke="#FF6600" stroke-width="0.640525" stroke-miterlimit="2.61313"/>
<path fill-rule="evenodd" clip-rule="evenodd" d="M35.9545 27.2125C35.9545 27.627 35.989 27.9923 36.323 28.3248C36.9486 28.9446 37.9965 28.7435 38.3343 27.8856C38.7987 26.7035 37.6434 25.6979 36.7682 26.1001C36.3306 26.3012 35.9545 26.7322 35.9545 27.2125Z" stroke="#FF6600" stroke-width="0.640525" stroke-miterlimit="2.61313"/>
</svg>
