<svg width="21" height="21" viewBox="0 0 21 21" fill="none" xmlns="http://www.w3.org/2000/svg">
<g id="Linkedin_icon 1" clip-path="url(#clip0_66_579)">
<g id="Layer_x0020_1">
<path id="Vector" d="M11.256 9.57619C11.424 9.4082 11.424 9.2402 11.76 9.0722C12.264 8.4002 12.936 8.2322 13.608 8.2322C14.112 8.2322 14.448 8.23219 14.784 8.4002C15.792 8.5682 16.296 9.2402 16.632 10.2482C16.8 10.9202 16.8 11.5922 16.8 12.2642C16.8 13.6082 16.8 15.1202 16.8 16.6322C16.8 16.8002 16.8 16.8002 16.632 16.8002C15.792 16.8002 15.12 16.8002 14.448 16.8002C14.28 16.8002 14.28 16.8002 14.28 16.6322C14.28 15.2882 14.28 13.7762 14.28 12.4322C14.28 12.0962 14.1119 11.7602 14.1119 11.4242C13.944 10.7522 13.44 10.4162 12.768 10.5842C11.928 10.5842 11.424 10.9202 11.256 11.9282C11.256 12.0962 11.256 12.2642 11.256 12.6002C11.256 13.9442 11.256 15.2882 11.256 16.6322C11.256 16.8002 11.256 16.8002 11.088 16.8002C10.416 16.8002 9.57595 16.8002 8.90395 16.8002C8.73595 16.8002 8.73595 16.8002 8.73595 16.6322C8.73595 13.9442 8.73595 11.2562 8.73595 8.56819C8.73595 8.4002 8.73595 8.4002 8.90395 8.4002C9.57595 8.4002 10.248 8.4002 11.088 8.4002C11.088 8.4002 11.256 8.4002 11.256 8.56819C11.256 8.90419 11.256 9.24019 11.256 9.57619ZM7.22395 5.7122C7.22395 6.5522 6.55195 7.2242 5.71195 7.2242C4.87195 7.2242 4.19995 6.5522 4.19995 5.7122C4.19995 5.0402 4.87195 4.2002 5.71195 4.2002C6.55195 4.3682 7.22395 5.0402 7.22395 5.7122ZM7.05595 12.6002C7.05595 13.9442 7.05595 15.2882 7.05595 16.6322C7.05595 16.8002 7.05595 16.8002 6.88795 16.8002C6.04795 16.8002 5.37595 16.8002 4.70395 16.8002C4.53595 16.8002 4.53595 16.8002 4.53595 16.6322C4.53595 13.9442 4.53595 11.2562 4.53595 8.56819C4.53595 8.4002 4.53595 8.4002 4.53595 8.4002C5.37595 8.4002 6.21595 8.4002 6.88795 8.4002C7.05595 8.4002 7.05595 8.56819 7.05595 8.56819C7.05595 9.91219 7.05595 11.2562 7.05595 12.6002Z" fill="white"/>
</g>
</g>
<defs>
<clipPath id="clip0_66_579">
<rect width="21" height="21" fill="white"/>
</clipPath>
</defs>
</svg>
