<svg width="1280" height="25" viewBox="0 0 1280 25" fill="none" xmlns="http://www.w3.org/2000/svg">
<path d="M1280 0H1170.47V24.9998H1280V0Z" fill="#9900CC"/>
<path d="M1175.34 0H1095.06C1086.98 0 1080.43 5.41019 1080.43 12.084V12.9158C1080.43 19.5896 1086.98 24.9998 1095.06 24.9998H1175.34C1183.42 24.9998 1189.96 19.5896 1189.96 12.9158V12.084C1189.96 5.41019 1183.42 0 1175.34 0Z" fill="#29B2FE"/>
<path d="M1085.3 0H1005.02C996.942 0 990.394 5.41019 990.394 12.084V12.9158C990.394 19.5896 996.942 24.9998 1005.02 24.9998H1085.3C1093.38 24.9998 1099.93 19.5896 1099.93 12.9158V12.084C1099.93 5.41019 1093.38 0 1085.3 0Z" fill="#36312D"/>
<path d="M995.267 0H914.985C906.907 0 900.359 5.41019 900.359 12.084V12.9158C900.359 19.5896 906.907 24.9998 914.985 24.9998H995.267C1003.34 24.9998 1009.89 19.5896 1009.89 12.9158V12.084C1009.89 5.41019 1003.34 0 995.267 0Z" fill="#1256B7"/>
<path d="M905.231 0H824.949C816.871 0 810.323 5.41019 810.323 12.084V12.9158C810.323 19.5896 816.871 24.9998 824.949 24.9998H905.231C913.308 24.9998 919.856 19.5896 919.856 12.9158V12.084C919.856 5.41019 913.308 0 905.231 0Z" fill="#79DEBC"/>
<path d="M815.195 0H734.913C726.835 0 720.287 5.41019 720.287 12.084V12.9158C720.287 19.5896 726.835 24.9998 734.913 24.9998H815.195C823.273 24.9998 829.821 19.5896 829.821 12.9158V12.084C829.821 5.41019 823.273 0 815.195 0Z" fill="#325384"/>
<path d="M725.159 0H644.877C636.799 0 630.251 5.41019 630.251 12.084V12.9158C630.251 19.5896 636.799 24.9998 644.877 24.9998H725.159C733.236 24.9998 739.785 19.5896 739.785 12.9158V12.084C739.785 5.41019 733.236 0 725.159 0Z" fill="#0F5BF5"/>
<path d="M635.123 0H554.841C546.763 0 540.215 5.41019 540.215 12.084V12.9158C540.215 19.5896 546.763 24.9998 554.841 24.9998H635.123C643.201 24.9998 649.749 19.5896 649.749 12.9158V12.084C649.749 5.41019 643.201 0 635.123 0Z" fill="#36312D"/>
<path d="M545.088 0H464.805C456.728 0 450.18 5.41019 450.18 12.084V12.9158C450.18 19.5896 456.728 24.9998 464.805 24.9998H545.088C553.165 24.9998 559.713 19.5896 559.713 12.9158V12.084C559.713 5.41019 553.165 0 545.088 0Z" fill="#14133B"/>
<path d="M455.051 0H374.769C366.692 0 360.144 5.41019 360.144 12.084V12.9158C360.144 19.5896 366.692 24.9998 374.769 24.9998H455.051C463.129 24.9998 469.677 19.5896 469.677 12.9158V12.084C469.677 5.41019 463.129 0 455.051 0Z" fill="#325384"/>
<path d="M365.015 0H284.733C276.656 0 270.107 5.41019 270.107 12.084V12.9158C270.107 19.5896 276.656 24.9998 284.733 24.9998H365.015C373.093 24.9998 379.641 19.5896 379.641 12.9158V12.084C379.641 5.41019 373.093 0 365.015 0Z" fill="#33CC99"/>
<path d="M274.979 0H194.697C186.619 0 180.071 5.41019 180.071 12.084V12.9158C180.071 19.5896 186.619 24.9998 194.697 24.9998H274.979C283.057 24.9998 289.605 19.5896 289.605 12.9158V12.084C289.605 5.41019 283.057 0 274.979 0Z" fill="#6169AC"/>
<path d="M184.944 0H104.662C96.5843 0 90.0361 5.41019 90.0361 12.084V12.9158C90.0361 19.5896 96.5843 24.9998 104.662 24.9998H184.944C193.022 24.9998 199.57 19.5896 199.57 12.9158V12.084C199.57 5.41019 193.022 0 184.944 0Z" fill="#111347"/>
<path fill-rule="evenodd" clip-rule="evenodd" d="M97.3564 0.000488281H0V25.0003H97.3564C104.054 25.0003 109.534 19.5624 109.534 12.9155V12.0845C109.534 5.43836 104.054 0.000488281 97.3564 0.000488281Z" fill="#9900CC"/>
</svg>
