<svg width="57" height="45" viewBox="0 0 57 45" fill="none" xmlns="http://www.w3.org/2000/svg">
<path d="M13.8805 35.1838H11.0218H10.5245V35.1711C5.22082 34.9089 1 30.4758 1 25.0457C1 19.705 5.08209 15.329 10.2623 14.9363C10.2616 14.8875 10.2606 14.839 10.2606 14.7902C10.2606 9.51198 14.4905 5.23329 19.7078 5.23329C21.1262 5.23329 22.4717 5.55018 23.6792 6.11703C26.1622 2.98092 29.979 0.97168 34.2599 0.97168C41.7436 0.97168 47.8102 7.10868 47.8102 14.6792C47.8102 14.7738 47.8092 14.868 47.8071 14.9623C52.3625 15.9549 55.7769 20.053 55.7769 24.9583C55.7769 30.6059 51.2512 35.1838 45.6684 35.1841H42.3319" stroke="white" stroke-width="1.64" stroke-miterlimit="2.61313" stroke-linecap="round"/>
<path fill-rule="evenodd" clip-rule="evenodd" d="M27.0522 19.4131H29.6869C30.1031 19.4131 30.3249 19.7754 30.4433 20.1783L31.0287 22.1671C31.7774 22.3785 32.49 22.6779 33.1546 23.0536L34.9703 22.0595C35.3362 21.8591 35.746 21.7618 36.0404 22.0595L37.9034 23.9441C38.1977 24.2419 38.1012 24.6568 37.9034 25.0266L36.9268 26.8525C37.3012 27.5235 37.6006 28.243 37.8129 28.9997L39.79 29.5952C40.189 29.7154 40.5465 29.9394 40.5465 30.3604V33.0257C40.5465 33.4467 40.1883 33.671 39.79 33.7909L37.824 34.383C37.6148 35.1404 37.3191 35.8613 36.9477 36.5336L37.9304 38.3704C38.1285 38.7406 38.2247 39.1551 37.9304 39.4529L36.0674 41.3375C35.773 41.6353 35.3629 41.5376 34.9973 41.3375L33.1924 40.3496C32.5291 40.728 31.8179 41.0312 31.0699 41.246L30.4812 43.246C30.3623 43.6496 30.1409 44.0113 29.7247 44.0113H27.09C26.6738 44.0113 26.4521 43.649 26.3336 43.246L25.7483 41.2573C24.9995 41.0456 24.287 40.7464 23.6223 40.3708L21.8066 41.3648C21.4407 41.5653 21.0309 41.6626 20.7365 41.3648L18.8735 39.4802C18.5792 39.1825 18.6757 38.7676 18.8735 38.3977L19.8501 36.5719C19.4761 35.9009 19.1763 35.1814 18.964 34.4247L16.9869 33.8292C16.5879 33.709 16.2305 33.4849 16.2305 33.0639V30.3987C16.2305 29.9777 16.5886 29.7533 16.9869 29.6334L18.9529 29.0413C19.1622 28.2839 19.4579 27.5631 19.8292 26.8907L18.8465 25.0539C18.6484 24.6838 18.5522 24.2692 18.8465 23.9714L20.7095 22.0868C21.0039 21.7891 21.414 21.8867 21.7796 22.0868L23.5845 23.0747C24.2478 22.6964 24.959 22.3931 25.7071 22.1784L26.2958 20.1783C26.4146 19.7747 26.636 19.4131 27.0522 19.4131Z" stroke="white" stroke-width="1.64" stroke-miterlimit="2.61313" stroke-linecap="round" stroke-linejoin="round"/>
<path d="M28.3887 37.8808C31.7563 37.8808 34.4863 35.1191 34.4863 31.7124C34.4863 28.3056 31.7563 25.5439 28.3887 25.5439C25.021 25.5439 22.291 28.3056 22.291 31.7124C22.291 35.1191 25.021 37.8808 28.3887 37.8808Z" stroke="white" stroke-width="1.64" stroke-miterlimit="2.61313" stroke-linecap="round" stroke-linejoin="round"/>
</svg>
