<svg width="45" height="43" viewBox="0 0 45 43" fill="none" xmlns="http://www.w3.org/2000/svg">
<path d="M4.6398 42.0103C2.63774 42.0103 1 40.3104 1 38.2324V4.7789C1 2.70086 2.63774 1.00098 4.6398 1.00098H31.4403C33.4424 1.00098 35.0801 2.70086 35.0801 4.7789V9.80257M35.0801 30.2224V37.2641" stroke="white" stroke-width="1.64" stroke-miterlimit="2.61313" stroke-linecap="round" stroke-linejoin="round"/>
<path fill-rule="evenodd" clip-rule="evenodd" d="M6.9721 37.2637H37.8942C37.8942 37.2637 38.5224 41.9755 34.9813 41.9755C31.4411 41.9755 4.64062 41.9755 4.64062 41.9755C4.64062 41.9755 7.57221 41.4356 6.9721 37.2637Z" stroke="white" stroke-width="1.64" stroke-miterlimit="2.61313" stroke-linecap="round" stroke-linejoin="round"/>
<path d="M6.67578 10.334H19.1444" stroke="white" stroke-width="1.64" stroke-miterlimit="2.61313" stroke-linecap="round" stroke-linejoin="round"/>
<path d="M6.67578 20.1719H15.1411" stroke="white" stroke-width="1.64" stroke-miterlimit="2.61313" stroke-linecap="round" stroke-linejoin="round"/>
<path d="M6.67578 30.0098H19.1444" stroke="white" stroke-width="1.64" stroke-miterlimit="2.61313" stroke-linecap="round" stroke-linejoin="round"/>
<path fill-rule="evenodd" clip-rule="evenodd" d="M31.8077 8.90332H34.1426C34.5112 8.90332 34.7078 9.23287 34.8133 9.59953L35.3317 11.4072C35.9948 11.5998 36.6264 11.8719 37.2155 12.213L38.8243 11.3091C39.1486 11.1271 39.512 11.0388 39.7725 11.3091L41.423 13.0223C41.6835 13.2926 41.5984 13.6699 41.423 14.0065L40.5573 15.6666C40.8885 16.2763 41.154 16.931 41.3422 17.6183L43.094 18.1599C43.4472 18.2695 43.7647 18.4727 43.7647 18.8561V21.2796C43.7647 21.6622 43.4472 21.8663 43.094 21.9758L41.3524 22.5139C41.1668 23.2022 40.9046 23.8577 40.5761 24.4691L41.4469 26.139C41.6222 26.4756 41.7073 26.8529 41.4469 27.1232L39.7963 28.8364C39.5359 29.1067 39.1724 29.0184 38.8481 28.8364L37.2487 27.9378C36.6605 28.2815 36.0306 28.5572 35.3683 28.7524L34.8465 30.5707C34.741 30.9374 34.5443 31.2669 34.1758 31.2669H31.8409C31.4723 31.2669 31.2757 30.9374 31.1701 30.5707L30.6517 28.763C29.9886 28.5704 29.357 28.2983 28.768 27.9572L27.1592 28.8611C26.8349 29.0431 26.4723 29.1314 26.2109 28.8611L24.5604 27.1479C24.3 26.8776 24.3851 26.5003 24.5604 26.1637L25.4261 24.5036C25.095 23.8931 24.8294 23.2393 24.6413 22.5519L22.8895 22.0103C22.5363 21.9007 22.2188 21.6975 22.2188 21.3141V18.8906C22.2188 18.508 22.5363 18.3039 22.8895 18.1944L24.6311 17.6563C24.8167 16.9681 25.0788 16.3125 25.4074 15.7011L24.5366 14.0313C24.3613 13.6946 24.2761 13.3183 24.5366 13.047L26.1871 11.3339C26.4476 11.0635 26.8111 11.1519 27.1354 11.3339L28.7348 12.2324C29.323 11.8887 29.9529 11.6131 30.6151 11.4178L31.1369 9.59953C31.2425 9.23287 31.4383 8.90332 31.8077 8.90332Z" stroke="white" stroke-width="1.64" stroke-miterlimit="2.61313" stroke-linecap="round" stroke-linejoin="round"/>
<path d="M32.9925 25.6929C35.9763 25.6929 38.3952 23.1823 38.3952 20.0852C38.3952 16.9882 35.9763 14.4775 32.9925 14.4775C30.0087 14.4775 27.5898 16.9882 27.5898 20.0852C27.5898 23.1823 30.0087 25.6929 32.9925 25.6929Z" stroke="white" stroke-width="1.64" stroke-miterlimit="2.61313" stroke-linecap="round" stroke-linejoin="round"/>
</svg>
