<svg width="49" height="32" viewBox="0 0 49 32" fill="none" xmlns="http://www.w3.org/2000/svg">
<path fill-rule="evenodd" clip-rule="evenodd" d="M11.4752 7.18082C14.6444 7.18082 17.5136 8.55287 19.59 10.7739C21.6651 12.9923 22.9511 16.0609 22.9511 19.4502C22.9511 22.834 21.6651 25.9014 19.59 28.1197C17.5099 30.3434 14.6406 31.7182 11.4752 31.7182C8.30481 31.7182 5.43427 30.3434 3.35914 28.1251C1.40823 26.0395 0.157382 23.2069 0.0118476 20.0631H-0.00195312L0.000556093 19.7265L-0.00195312 19.4502C-0.00195312 18.7527 0.0532497 18.0674 0.157382 17.4021C0.602768 13.7111 1.96151 10.283 4.01405 7.42089C6.55212 3.88413 10.1566 1.21647 14.4035 0L14.9379 2.14325C11.144 3.22962 7.92717 5.61026 5.66135 8.76612L5.52585 8.95791C7.26349 7.82862 9.29972 7.17947 11.474 7.17947L11.4752 7.18082Z" fill="#325384"/>
<path fill-rule="evenodd" clip-rule="evenodd" d="M37.5228 7.18082C40.6919 7.18082 43.5612 8.55287 45.6388 10.7739C47.7127 12.9923 48.9999 16.0609 48.9999 19.4502C48.9999 22.834 47.714 25.9014 45.6388 28.1197C43.5574 30.3434 40.6894 31.7182 37.5228 31.7182C34.3536 31.7182 31.4818 30.3434 29.408 28.1251C27.4571 26.0395 26.205 23.2069 26.0607 20.0631H26.0469L26.0494 19.7265L26.0469 19.4502C26.0469 18.7527 26.1021 18.0674 26.2062 17.4021C26.6516 13.7111 28.0116 10.283 30.0629 7.42089C32.601 3.88413 36.2054 1.21647 40.451 0L40.9868 2.14325C37.1928 3.22962 33.976 5.61026 31.7102 8.76612L31.5747 8.95791C33.3111 7.82862 35.3473 7.17947 37.5228 7.17947V7.18082Z" fill="#325384"/>
</svg>
