<svg width="51" height="51" viewBox="0 0 51 51" fill="none" xmlns="http://www.w3.org/2000/svg">
<path fill-rule="evenodd" clip-rule="evenodd" d="M22.6718 1H27.9478C28.781 1 29.2245 1.72076 29.4621 2.52554L30.6349 6.48597C32.1344 6.90797 33.5615 7.50362 34.8921 8.25052L38.5276 6.27124C39.2606 5.87165 40.0809 5.67746 40.671 6.27124L44.4011 10.0244C44.9913 10.6182 44.7982 11.4435 44.4011 12.1811L42.4451 15.8185C43.1949 17.1554 43.7943 18.5876 44.2192 20.0945L48.1776 21.2802C48.9775 21.5192 49.6938 21.9655 49.6938 22.8039V28.1124C49.6938 28.9508 48.9775 29.3971 48.1776 29.638L44.2415 30.8181C43.8221 32.3268 43.2301 33.7627 42.4878 35.1015L44.4549 38.7595C44.8521 39.497 45.0451 40.3224 44.4549 40.9162L40.7248 44.6712C40.1347 45.265 39.3144 45.0708 38.5814 44.6712L34.9663 42.7031C33.6376 43.4575 32.2142 44.0606 30.7166 44.4882L29.5382 48.471C29.3006 49.274 28.8571 49.9947 28.0239 49.9947H22.7479C21.9146 49.9947 21.4711 49.274 21.2317 48.471L20.0589 44.5106C18.5594 44.0886 17.1323 43.493 15.8017 42.7461L12.1662 44.7253C11.4332 45.1249 10.6129 45.3191 10.0228 44.7253L6.29083 40.9703C5.70069 40.3765 5.89369 39.5512 6.29083 38.8136L8.24682 35.1762C7.49708 33.8393 6.89767 32.4071 6.47269 30.9002L2.51432 29.7145C1.71633 29.4755 1 29.0293 1 28.189V22.8804C1 22.042 1.71633 21.5957 2.51432 21.3567L6.45042 20.1766C6.86983 18.6679 7.46182 17.232 8.20414 15.8932L6.23701 12.2352C5.83987 11.4977 5.64687 10.6723 6.23701 10.0786L9.96898 6.32539C10.5591 5.73161 11.3794 5.9258 12.1124 6.32539L15.7275 8.29347C17.0562 7.5391 18.4796 6.93598 19.9772 6.50838L21.1556 2.52554C21.3932 1.72076 21.8367 1 22.6718 1Z" stroke="white" stroke-width="1.64" stroke-miterlimit="2.61313" stroke-linecap="round" stroke-linejoin="round"/>
<path d="M25.3477 37.7849C32.0917 37.7849 37.5588 32.284 37.5588 25.4984C37.5588 18.7128 32.0917 13.2119 25.3477 13.2119C18.6038 13.2119 13.1367 18.7128 13.1367 25.4984C13.1367 32.284 18.6038 37.7849 25.3477 37.7849Z" stroke="white" stroke-width="1.64" stroke-miterlimit="2.61313" stroke-linecap="round" stroke-linejoin="round"/>
<path d="M19.2871 25.1719L23.5443 29.4554L31.4091 21.542" stroke="white" stroke-width="1.64" stroke-miterlimit="2.61313" stroke-linecap="round" stroke-linejoin="round"/>
</svg>
