<svg width="52" height="52" viewBox="0 0 52 52" fill="none" xmlns="http://www.w3.org/2000/svg">
<path fill-rule="evenodd" clip-rule="evenodd" d="M23.1143 1.00195H28.4986C29.349 1.00195 29.8022 1.73831 30.0448 2.55775L31.2408 6.59954C32.7709 7.02955 34.2269 7.63808 35.5856 8.40104L39.2958 6.38089C40.0439 5.97347 40.8809 5.77578 41.4823 6.38089L45.2897 10.2116C45.8911 10.8167 45.694 11.6598 45.2897 12.4119L43.2937 16.123C44.0582 17.487 44.6704 18.9492 45.1044 20.4868L49.1444 21.6972C49.9594 21.9414 50.6905 22.3972 50.6905 23.2529V28.6704C50.6905 29.5262 49.9587 29.9822 49.1444 30.2262L45.1273 31.4296C44.6998 32.9691 44.0953 34.4342 43.3369 35.8012L45.3448 39.5344C45.7494 40.2872 45.9462 41.1293 45.3448 41.7344L41.5374 45.5653C40.936 46.1704 40.0981 45.9721 39.3509 45.5653L35.6627 43.5571C34.3068 44.3263 32.8538 44.9422 31.3254 45.3789L30.1227 49.4439C29.8799 50.2639 29.4269 50.9995 28.5764 50.9995H23.1921C22.3416 50.9995 21.8886 50.2632 21.646 49.4439L20.45 45.402C18.9199 44.9718 17.4637 44.3636 16.1053 43.6005L12.395 45.6208C11.6469 46.0279 10.8096 46.2259 10.2082 45.6208L6.401 41.7899C5.79961 41.1848 5.99653 40.3417 6.401 39.5899L8.39692 35.8788C7.63244 34.5146 7.02012 33.0526 6.58625 31.5148L2.54625 30.3046C1.73095 30.0604 1 29.6045 1 28.7488V23.3312C1 22.4755 1.73183 22.0196 2.54625 21.7755L6.5632 20.5722C6.99087 19.0326 7.59536 17.5674 8.35364 16.2006L6.3459 12.4673C5.94098 11.7146 5.74451 10.8722 6.3459 10.267L10.1531 6.43633C10.7545 5.83122 11.5924 6.02936 12.3399 6.43633L16.0281 8.44459C17.384 7.67538 18.837 7.05928 20.3652 6.62272L21.5682 2.55775C21.8109 1.73742 22.2638 1.00195 23.1143 1.00195Z" stroke="white" stroke-width="1.64" stroke-miterlimit="2.61313" stroke-linecap="round" stroke-linejoin="round"/>
<path d="M25.8453 38.5379C32.727 38.5379 38.3058 32.9247 38.3058 26.0004C38.3058 19.0761 32.727 13.4629 25.8453 13.4629C18.9635 13.4629 13.3848 19.0761 13.3848 26.0004C13.3848 32.9247 18.9635 38.5379 25.8453 38.5379Z" stroke="white" stroke-width="1.64" stroke-miterlimit="2.61313" stroke-linecap="round" stroke-linejoin="round"/>
<path fill-rule="evenodd" clip-rule="evenodd" d="M25.8445 18.0947L27.7862 24.147L34.1069 24.1348L28.9862 27.8631L30.9508 33.9078L25.8445 30.1599L20.7382 33.9078L22.7028 27.8631L17.582 24.1348L23.9028 24.147L25.8445 18.0947Z" stroke="white" stroke-width="1.64" stroke-miterlimit="2.61313" stroke-linejoin="round"/>
</svg>
