<svg width="21" height="21" viewBox="0 0 21 21" fill="none" xmlns="http://www.w3.org/2000/svg">
<g id="Instagram_icon 1" clip-path="url(#clip0_66_583)">
<g id="Layer_x0020_1">
<path id="Vector" d="M7.73684 3.68408H13.4474C14.3684 3.68408 15.4737 4.0525 16.2105 4.78935C16.9474 5.52619 17.3158 6.63145 17.3158 7.73671V13.4472C17.3158 14.3683 16.9474 15.4736 16.2105 16.2104C15.4737 16.9472 14.3684 17.3157 13.4474 17.3157H7.73684C6.63157 17.3157 5.52631 16.9472 4.78947 16.2104C4.05262 15.4736 3.6842 14.3683 3.6842 13.4472V7.73671C3.6842 6.63145 4.05262 5.52619 4.78947 4.78935C5.52631 4.0525 6.63157 3.68408 7.73684 3.68408ZM13.6316 6.44724C14.1842 6.44724 14.5526 6.81566 14.5526 7.36829C14.5526 7.73671 14.1842 8.28934 13.6316 8.28934C13.2632 8.28934 12.7105 7.73671 12.7105 7.36829C12.7105 6.81566 13.2632 6.44724 13.6316 6.44724ZM10.3158 7.5525C11.2368 7.5525 12.1579 7.92092 12.7105 8.47356C13.4474 9.2104 13.8158 10.1315 13.8158 11.0525C13.8158 11.9736 13.4474 12.8946 12.7105 13.6315C12.1579 14.1841 11.2368 14.5525 10.3158 14.5525C9.21052 14.5525 8.47368 14.1841 7.73684 13.6315C7.1842 12.8946 6.63157 11.9736 6.63157 11.0525C6.63157 10.1315 7.1842 9.2104 7.73684 8.47356C8.47368 7.92092 9.21052 7.5525 10.3158 7.5525ZM11.6053 9.57882C11.2368 9.2104 10.8684 9.02619 10.3158 9.02619C9.76315 9.02619 9.21052 9.2104 8.8421 9.57882C8.47368 9.94724 8.28947 10.4999 8.28947 11.0525C8.28947 11.6051 8.47368 12.1578 8.8421 12.5262C9.21052 12.7104 9.76315 13.0788 10.3158 13.0788C10.8684 13.0788 11.2368 12.7104 11.6053 12.5262C11.9737 12.1578 12.3421 11.6051 12.3421 11.0525C12.3421 10.4999 11.9737 9.94724 11.6053 9.57882ZM13.4474 5.7104H7.73684C7.1842 5.7104 6.63157 5.89461 6.26315 6.26303C5.89473 6.63145 5.71052 7.18408 5.71052 7.73671V13.4472C5.71052 13.9999 5.89473 14.3683 6.26315 14.7367C6.63157 15.1051 7.1842 15.2893 7.73684 15.2893H13.4474C14 15.2893 14.3684 15.1051 14.7368 14.7367C15.1053 14.3683 15.2895 13.9999 15.2895 13.4472V7.73671C15.2895 7.18408 15.1053 6.63145 14.7368 6.26303C14.3684 5.89461 14 5.7104 13.4474 5.7104Z" fill="white"/>
</g>
</g>
<defs>
<clipPath id="clip0_66_583">
<rect width="21" height="21" fill="white"/>
</clipPath>
</defs>
</svg>
