<svg width="73" height="30" viewBox="0 0 73 30" fill="none" xmlns="http://www.w3.org/2000/svg">
<g clip-path="url(#clip0_8_397)">
<path d="M3.6823 29.6791H0V10.3097H3.6823V29.6791Z" fill="white"/>
<path d="M7.07391 14.8239L10.3363 14.8559V17.3211H10.4332C11.0792 16.2006 12.6943 14.8239 15.1168 14.8239C17.6686 14.8239 20.3173 16.4567 20.3173 21.0349V29.6471H16.635V21.4511C16.635 19.3701 15.8598 17.8013 13.8248 17.8013C12.339 17.8013 11.3376 18.8579 10.95 19.9464C10.8208 20.2345 10.7562 20.6827 10.7562 21.0989V29.6471H7.07391V14.8239Z" fill="white"/>
<path d="M23.5474 13.6073H23.4828L21.3186 14.8239V11.6544L23.5474 10.2777H27.1005V29.6471H23.5151V13.6073H23.5474Z" fill="white"/>
<path d="M36.9845 27.2459C39.2133 27.2459 40.3115 24.6526 40.3115 20.1065C40.3115 15.6883 39.2133 13.0631 37.0168 13.0631C34.9819 13.0631 33.6575 15.5923 33.6575 20.1065C33.5929 24.7487 34.9173 27.2459 36.9522 27.2459H36.9845ZM36.8553 29.9992C32.3655 29.9992 29.9752 26.0293 29.9429 20.2025C29.9429 14.2476 32.527 10.3097 37.0814 10.3097C41.7974 10.3097 43.9938 14.4077 43.9938 20.0104C43.9938 26.1574 41.5712 29.9992 36.8876 29.9992H36.8553Z" fill="white"/>
<path d="M46.8686 25.9653C48.2898 26.8617 52.9412 27.566 52.9412 25.389C52.9412 22.6997 46.5133 23.8843 46.5133 19.3381C46.5133 16.7769 48.6451 14.8239 52.0367 14.8239C53.6518 14.8239 55.073 15.2081 55.9451 15.6883L55.2022 18.2496C53.8779 17.4812 50.1956 17.033 50.0664 18.9539C49.9695 21.131 56.462 20.3306 56.5266 25.1009C56.5266 27.7581 54.4593 29.6471 50.5832 29.6471C48.8066 29.6471 47.2239 29.2309 46.1257 28.6226L46.8686 25.9333V25.9653Z" fill="white"/>
<path d="M69.2531 3.71457H58.0124V0.000782013H73V14.8239H69.2531V3.68255V3.71457Z" fill="white"/>
<path d="M58.0124 14.8239H61.7593V11.1101H58.0124V14.8239Z" fill="white"/>
<path fill-rule="evenodd" clip-rule="evenodd" d="M61.7916 11.1421H65.5385V7.42836H61.7916V11.1421ZM62.2115 7.84456H65.1509V10.758H62.2115V7.84456Z" fill="white"/>
</g>
<defs>
<clipPath id="clip0_8_397">
<rect width="73" height="30" fill="white"/>
</clipPath>
</defs>
</svg>
