<svg width="42" height="46" viewBox="0 0 42 46" fill="none" xmlns="http://www.w3.org/2000/svg">
<path d="M9.6181 28.4508C1.44725 27.3224 2.62313 14.2324 11.0653 14.845C11.0653 14.845 12.603 7.65523 18.3015 5.17265C25.0251 2.2387 31.2965 6.75247 33.0151 12.4592C40.5829 16.5216 38.6533 26.3229 31.6282 28.8377" stroke="#29B2FE" stroke-width="0.6342" stroke-miterlimit="2.61313" stroke-linecap="round"/>
<path d="M26.8342 16.1992H15.1055C13.7901 16.1992 12.7236 17.6138 12.7236 19.3588V19.391C12.7236 21.1361 13.7901 22.5507 15.1055 22.5507H26.8342C28.1497 22.5507 29.2161 21.1361 29.2161 19.391V19.3588C29.2161 17.6138 28.1497 16.1992 26.8342 16.1992Z" stroke="#29B2FE" stroke-width="0.6342" stroke-miterlimit="2.61313"/>
<path d="M26.8342 22.5507H15.1055C13.7901 22.5507 12.7236 23.9653 12.7236 25.7103V25.7425C12.7236 27.4876 13.7901 28.9022 15.1055 28.9022H26.8342C28.1497 28.9022 29.2161 27.4876 29.2161 25.7425V25.7103C29.2161 23.9653 28.1497 22.5507 26.8342 22.5507Z" stroke="#29B2FE" stroke-width="0.6342" stroke-miterlimit="2.61313"/>
<path d="M26.8342 28.9022H15.1055C13.7901 28.9022 12.7236 30.3168 12.7236 32.0618V32.094C12.7236 33.8391 13.7901 35.2537 15.1055 35.2537H26.8342C28.1497 35.2537 29.2161 33.8391 29.2161 32.094V32.0618C29.2161 30.3168 28.1497 28.9022 26.8342 28.9022Z" stroke="#29B2FE" stroke-width="0.6342" stroke-miterlimit="2.61313"/>
<path d="M15.4373 19.3588H21.4976" stroke="#29B2FE" stroke-width="0.6342" stroke-miterlimit="2.61313" stroke-linecap="round"/>
<path d="M23.3367 19.3588H24" stroke="#29B2FE" stroke-width="0.6342" stroke-miterlimit="2.61313" stroke-linecap="round"/>
<path d="M25.8392 19.3588H26.5026" stroke="#29B2FE" stroke-width="0.6342" stroke-miterlimit="2.61313" stroke-linecap="round"/>
<path d="M15.4373 25.7103H21.4976" stroke="#29B2FE" stroke-width="0.6342" stroke-miterlimit="2.61313" stroke-linecap="round"/>
<path d="M23.3367 25.7103H24" stroke="#29B2FE" stroke-width="0.6342" stroke-miterlimit="2.61313" stroke-linecap="round"/>
<path d="M25.8392 25.7103H26.5026" stroke="#29B2FE" stroke-width="0.6342" stroke-miterlimit="2.61313" stroke-linecap="round"/>
<path d="M15.4373 32.0618H21.4976" stroke="#29B2FE" stroke-width="0.6342" stroke-miterlimit="2.61313" stroke-linecap="round"/>
<path d="M23.3367 32.0618H24" stroke="#29B2FE" stroke-width="0.6342" stroke-miterlimit="2.61313" stroke-linecap="round"/>
<path d="M25.8392 32.0618H26.5026" stroke="#29B2FE" stroke-width="0.6342" stroke-miterlimit="2.61313" stroke-linecap="round"/>
<path d="M20.9849 35.2214V37.5428" stroke="#29B2FE" stroke-width="0.6342" stroke-miterlimit="2.61313"/>
<path d="M3.19604 39.7352H16.7639" stroke="#29B2FE" stroke-width="0.6342" stroke-miterlimit="2.61313" stroke-linecap="round"/>
<path d="M25.2362 39.7352H38.804" stroke="#29B2FE" stroke-width="0.6342" stroke-miterlimit="2.61313" stroke-linecap="round"/>
<path d="M20.9849 41.8954C22.1006 41.8954 23.005 40.9283 23.005 39.7352C23.005 38.5422 22.1006 37.5751 20.9849 37.5751C19.8693 37.5751 18.9648 38.5422 18.9648 39.7352C18.9648 40.9283 19.8693 41.8954 20.9849 41.8954Z" stroke="#29B2FE" stroke-width="0.6342" stroke-miterlimit="2.61313"/>
</svg>
